<svg xmlns="http://www.w3.org/2000/svg" xmlns:xlink="http://www.w3.org/1999/xlink" width="1080" zoomAndPan="magnify" viewBox="0 0 810 809.999993" height="1080" preserveAspectRatio="xMidYMid meet" version="1.0"><defs><g/></defs><g fill="#f89a9a" fill-opacity="1"><g transform="translate(168.793353, 669.599991)"><g><path d="M 270.40625 -533.796875 C 269.625 -540.429688 266.695312 -546.773438 261.625 -552.828125 C 258.101562 -557.128906 253.609375 -561.132812 248.140625 -564.84375 L 240.53125 -569.828125 L 232.90625 -574.515625 C 226.65625 -578.222656 221.285156 -576.953125 216.796875 -570.703125 C 212.503906 -564.847656 209.085938 -558.207031 206.546875 -550.78125 C 203.222656 -540.425781 198.335938 -527.925781 191.890625 -513.28125 L 182.234375 -491.609375 L 172.859375 -469.921875 C 168.359375 -459.960938 163.375 -447.460938 157.90625 -432.421875 L 144.4375 -394.921875 L 134.765625 -367.671875 L 125.6875 -340.4375 L 119.53125 -326.65625 C 119.144531 -325.488281 118.363281 -324.90625 117.1875 -324.90625 C 116.019531 -324.90625 115.140625 -325.488281 114.546875 -326.65625 L 106.640625 -340.71875 C 93.554688 -363.769531 83.398438 -382.910156 76.171875 -398.140625 L 60.640625 -429.78125 L 45.125 -461.140625 L 30.46875 -493.0625 C 25.195312 -505.175781 20.898438 -516.019531 17.578125 -525.59375 C 14.648438 -533.59375 9.179688 -544.820312 1.171875 -559.28125 C -3.128906 -567.09375 -10.359375 -571.390625 -20.515625 -572.171875 C -26.367188 -572.554688 -28.710938 -570.015625 -27.546875 -564.546875 C -26.765625 -560.453125 -25.203125 -555.179688 -22.859375 -548.734375 L -11.421875 -517.671875 C -6.929688 -505.171875 -3.320312 -494.722656 -0.59375 -486.328125 C 5.664062 -465.628906 14.359375 -442.191406 25.484375 -416.015625 C 44.234375 -372.066406 63.960938 -334.375 84.671875 -302.9375 L 94.046875 -286.53125 C 98.148438 -279.882812 99.03125 -273.046875 96.6875 -266.015625 C 95.707031 -263.285156 94.925781 -260.0625 94.34375 -256.34375 C 92 -240.132812 88.09375 -221.582031 82.625 -200.6875 L 75.296875 -173.140625 L 67.671875 -145.609375 C 54.003906 -95.410156 44.628906 -57.320312 39.546875 -31.34375 L 35.15625 -9.671875 L 30.765625 12.015625 C 27.640625 28.804688 25.6875 43.550781 24.90625 56.25 L 24.609375 58.59375 C 22.847656 68.75 24.507812 78.125 29.59375 86.71875 C 31.9375 91.019531 35.253906 94.046875 39.546875 95.796875 C 47.753906 99.117188 57.425781 101.757812 68.5625 103.71875 C 73.050781 104.5 77.148438 104.398438 80.859375 103.421875 C 96.878906 99.117188 107.816406 90.816406 113.671875 78.515625 L 116.015625 74.125 L 118.65625 70.015625 C 130.175781 50.296875 137.789062 32.234375 141.5 15.828125 C 145.019531 0.390625 148.242188 -11.722656 151.171875 -20.515625 L 155.859375 -34.578125 L 160.546875 -48.921875 C 164.066406 -59.472656 167.78125 -72.753906 171.6875 -88.765625 L 176.375 -108.984375 L 181.34375 -128.90625 C 187.007812 -151.757812 192.867188 -172.171875 198.921875 -190.140625 L 207.71875 -217.09375 L 215.921875 -244.046875 L 223.828125 -274.8125 L 231.15625 -305.859375 L 236.71875 -330.46875 L 242.28125 -354.78125 L 246.96875 -372.359375 L 251.078125 -389.9375 C 253.804688 -403.414062 257.125 -415.523438 261.03125 -426.265625 C 263.96875 -434.859375 265.726562 -442.085938 266.3125 -447.953125 L 271.296875 -499.21875 L 273.34375 -517.09375 L 271.875 -525.875 Z M 270.40625 -533.796875 "/></g></g><g transform="translate(494.867555, 669.599991)"><g><path d="M 113.09375 -550.203125 C 107.425781 -470.117188 105.566406 -370.992188 107.515625 -252.828125 C 108.492188 -197.359375 99.507812 -148.238281 80.5625 -105.46875 C 68.65625 -78.320312 48.34375 -67.972656 19.625 -74.421875 C 14.15625 -75.585938 11.226562 -80.078125 10.84375 -87.890625 C 6.738281 -158.203125 5.757812 -224.21875 7.90625 -285.9375 C 9.46875 -328.125 8.394531 -365.625 4.6875 -398.4375 C 1.5625 -425.195312 2.050781 -459.570312 6.15625 -501.5625 C 8.300781 -524.613281 8.300781 -553.8125 6.15625 -589.15625 C 4.976562 -608.101562 5.46875 -624.804688 7.625 -639.265625 C 9.769531 -653.128906 19.4375 -659.472656 36.625 -658.296875 C 56.351562 -657.128906 72.859375 -650.195312 86.140625 -637.5 C 99.222656 -624.800781 107.035156 -608.492188 109.578125 -588.578125 L 111.625 -568.65625 L 112.203125 -558.984375 Z M 73.25 29.59375 C 72.851562 52.25 63.28125 63.378906 44.53125 62.984375 C 22.070312 62.398438 11.035156 50.488281 11.421875 27.25 C 11.421875 20.414062 15.914062 13.382812 24.90625 6.15625 C 33.695312 -1.070312 42.289062 -4.785156 50.6875 -4.984375 C 56.351562 -4.984375 61.625 -1.367188 66.5 5.859375 C 71.1875 13.085938 73.4375 21 73.25 29.59375 Z M 73.25 29.59375 "/></g></g></g></svg>
